<svg width="458" height="360" viewBox="0 0 458 360" fill="none" xmlns="http://www.w3.org/2000/svg">
<path d="M234.88 276.932C234.88 269.512 228.865 263.497 221.445 263.497C214.025 263.497 208.011 269.512 208.011 276.932H181.973V355.877H260.918V276.932H234.88Z" fill="#757DE8"/>
<path d="M226.214 174.731C226.4 167.314 220.538 161.15 213.121 160.963C205.704 160.777 199.54 166.639 199.353 174.056L173.323 173.402L171.341 252.322L199.625 253.032C199.642 245.369 205.858 239.162 213.525 239.162C221.202 239.162 227.426 245.386 227.426 253.063C227.426 253.288 227.403 253.507 227.392 253.73L250.261 254.304L252.243 175.384L226.214 174.731Z" fill="#F44336"/>
<path d="M396.876 121.102C430.317 121.102 457.427 93.9924 457.427 60.551C457.427 27.1096 430.317 0 396.876 0C363.435 0 336.325 27.1096 336.325 60.551C336.325 93.9924 363.435 121.102 396.876 121.102Z" fill="#F44336"/>
<path d="M277.185 90.143C277.185 90.143 262.521 84.508 262.351 85.712C262.181 86.917 266.897 89.288 266.897 89.288C266.897 89.288 259.885 90.183 256.009 90.413C254.542 90.5 253.283 91.64 253 93.12L252.264 96.964C252.264 96.964 259.379 97.734 263.262 97.87C267.145 98.006 278.781 97.756 278.781 97.756L277.185 90.143Z" fill="#D8948F"/>
<path d="M253.108 92.753L262.054 92.385" stroke="#050528" stroke-width="0.5" stroke-miterlimit="10" stroke-linecap="round" stroke-linejoin="round"/>
<path d="M252.671 95.208L261.617 94.84" stroke="#050528" stroke-width="0.5" stroke-miterlimit="10" stroke-linecap="round" stroke-linejoin="round"/>
<path d="M408.795 137.592C408.795 137.592 398.962 149.844 400.057 150.373C401.153 150.902 404.847 147.131 404.847 147.131C404.847 147.131 403.564 154.083 402.603 157.844C402.239 159.268 402.942 160.814 404.265 161.535L407.702 163.407C407.702 163.407 410.602 156.864 411.914 153.207C413.227 149.55 416.531 138.391 416.531 138.391L408.795 137.592Z" fill="#D8948F"/>
<path d="M403.949 161.32L406.323 152.687" stroke="#050528" stroke-width="0.5" stroke-miterlimit="10" stroke-linecap="round" stroke-linejoin="round"/>
<path d="M406.155 162.484L408.528 153.851" stroke="#050528" stroke-width="0.5" stroke-miterlimit="10" stroke-linecap="round" stroke-linejoin="round"/>
<path d="M361.789 62.848C364.398 60.31 364.457 56.1 361.919 53.49L352.589 43.897C350.052 41.288 345.841 41.229 343.232 43.767C340.623 46.305 340.564 50.515 343.102 53.124L352.432 62.717C354.969 65.327 359.18 65.386 361.789 62.848Z" fill="#D8948F"/>
<path d="M342.828 44.16L343.636 43.374C346.023 41.053 349.875 41.106 352.197 43.493L355.505 46.894C354.985 52.377 352.224 57.954 349.745 59.954L342.71 52.72C340.388 50.333 340.441 46.481 342.828 44.16Z" fill="#C67775"/>
<path d="M325.63 50.154C324.555 49.043 323.716 47.793 323.09 46.469C323.058 46.416 323.036 46.377 323.026 46.358C323.026 46.358 323.034 46.349 323.036 46.348C320.662 41.199 321.631 34.903 325.927 30.725C330.978 25.813 338.83 25.568 344.17 29.898C344.176 29.901 344.183 29.902 344.189 29.905C346.81 31.43 349.997 37.735 351.63 41.274C352.371 42.88 352.65 44.653 352.437 46.409C351.714 52.363 347.902 64.562 341.102 63.294C334.98 62.152 329.344 55.199 325.63 50.154Z" fill="#D8948F"/>
<path d="M336.136 54.916C336.136 54.916 338.253 54.907 338.888 52.24" stroke="#0E0108" stroke-width="0.5" stroke-miterlimit="10" stroke-linecap="round" stroke-linejoin="round"/>
<path d="M341.866 40.267C341.917 40.217 341.954 40.151 341.968 40.076C342.003 39.883 341.875 39.698 341.682 39.663C338.284 39.047 336.725 42.883 336.71 42.922C336.638 43.104 336.727 43.31 336.909 43.383C337.091 43.455 337.298 43.367 337.37 43.184C337.424 43.048 338.732 39.851 341.555 40.362C341.672 40.384 341.786 40.345 341.866 40.267Z" fill="#0E0108"/>
<path d="M327.31 52.375C327.162 52.184 327.016 51.996 326.872 51.808C327.874 50.706 329.214 50.199 329.236 50.19C329.42 50.123 329.625 50.218 329.691 50.403C329.758 50.587 329.663 50.79 329.479 50.858C329.458 50.865 328.184 51.344 327.31 52.375Z" fill="#0E0108"/>
<path d="M338.679 49.558C338.679 49.558 343.278 48.478 343.83 42.027C343.83 42.027 337.069 44.562 338.679 49.558Z" fill="white"/>
<path d="M338.573 49.848C338.648 49.775 338.69 49.67 338.679 49.558C338.657 49.336 338.206 44.104 343.995 42.718C344.186 42.672 344.303 42.481 344.258 42.29C344.212 42.099 344.02 41.982 343.83 42.027C337.429 43.56 337.965 49.569 337.972 49.63C337.992 49.825 338.166 49.967 338.361 49.947C338.444 49.939 338.517 49.902 338.573 49.848Z" fill="#0E0108"/>
<path d="M354.271 34.322C352.222 32.215 348.853 32.168 346.746 34.217C344.639 36.266 344.592 39.635 346.641 41.741C348.69 43.848 352.059 43.895 354.165 41.846C356.272 39.798 356.319 36.429 354.271 34.322Z" fill="#D8948F"/>
<path d="M349.071 40.09C349.071 40.09 347.27 35.792 351.23 33.285" stroke="#0E0108" stroke-width="0.5" stroke-miterlimit="10" stroke-linecap="round" stroke-linejoin="round"/>
<path d="M340.385 48.724C339.979 48.635 339.587 48.456 339.253 48.161C338.91 47.858 338.68 47.481 338.542 47.077C338.862 45.673 339.84 44.56 340.87 43.74C341.484 43.726 342.106 43.927 342.603 44.365C342.84 44.574 343.021 44.82 343.16 45.084C342.445 46.963 341.328 48.075 340.385 48.724Z" fill="#050528"/>
<path d="M331.776 53.419C332.505 53.278 333.338 53.248 334.286 53.374C333.838 54.124 333.365 54.759 332.878 55.274C332.851 54.977 332.778 54.68 332.64 54.396C332.438 53.982 332.133 53.657 331.776 53.419Z" fill="white"/>
<path d="M331.032 56.743C331.062 56.725 331.093 56.708 331.123 56.69C331.224 56.629 331.326 56.567 331.428 56.499C331.52 56.438 331.612 56.374 331.704 56.306C331.813 56.227 331.921 56.141 332.03 56.053C332.117 55.982 332.205 55.913 332.292 55.836C332.422 55.721 332.552 55.594 332.682 55.465C332.747 55.4 332.813 55.343 332.878 55.274C332.851 54.977 332.778 54.68 332.64 54.396C332.438 53.982 332.134 53.658 331.777 53.419C332.506 53.278 333.339 53.248 334.287 53.374C334.377 53.386 334.466 53.395 334.558 53.41C334.752 53.441 334.934 53.309 334.965 53.116C334.996 52.922 334.864 52.74 334.67 52.709C331.905 52.265 329.99 53.053 328.699 54.108C328.754 54.174 328.81 54.24 328.865 54.306C328.865 54.306 328.865 54.306 328.867 54.309C328.957 54.417 329.051 54.525 329.142 54.633C329.747 55.346 330.378 56.053 331.032 56.743Z" fill="#050528"/>
<path d="M340.513 59.556C341.652 59.72 342.81 59.452 343.811 58.902C345.67 57.88 346.876 55.829 347.034 53.735C347.115 52.661 346.963 51.408 346.314 50.515C345.649 49.601 344.416 49.293 343.859 50.474C343.317 51.624 343.427 52.958 342.875 54.111C342.674 54.53 342.396 54.924 342.061 55.261C341.791 55.442 341.496 55.596 341.168 55.709C340.281 56.013 337.935 56.164 338 57.526C338.057 58.731 339.48 59.407 340.513 59.556Z" fill="#0E0108"/>
<path d="M343.389 55.398C344.316 54.348 345.688 53.943 346.971 54.188C346.686 56.12 345.535 57.955 343.811 58.902C343.466 59.091 343.099 59.233 342.724 59.349C342.202 58.051 342.4 56.518 343.389 55.398Z" fill="#FF8DCC"/>
<path d="M349.744 59.954L316.528 85.543C316.528 85.543 299.443 89.952 276.79 88.621L274.305 100.605C274.305 100.605 299.856 114.143 324.922 103.268C349.988 92.393 363.748 74.637 363.748 74.637L349.744 59.954Z" fill="#757DE8"/>
<path d="M412.848 89.797C403.764 74.887 378.143 51.271 372.246 51.271C364.051 51.271 357.408 57.914 357.408 66.109C357.408 72.836 394.443 101.739 394.443 101.739C394.443 101.739 403.158 116.864 404.952 139.486L417.164 140.3C417.164 140.3 427.064 113.131 412.848 89.797Z" fill="#757DE8"/>
<path d="M455.852 75.833C457.072 71.04 457.724 66.02 457.724 60.848C457.724 49.621 454.657 39.116 449.333 30.102C437.246 30.578 380.778 32.822 371.308 33.581C360.691 34.432 354.915 46.279 354.915 46.279C357.619 56.529 350.041 60.25 350.041 60.25C356.624 75.12 404.636 90.382 404.636 90.382L455.852 75.833Z" fill="#757DE8"/>
<path d="M350.041 60.251L364.046 74.935" stroke="white" stroke-width="0.5" stroke-miterlimit="10" stroke-linecap="round" stroke-linejoin="round"/>
<path d="M411.994 88.293C411.994 88.293 383.388 50.652 373.526 50.246C363.664 49.84 357.092 58.003 358.157 68.761" stroke="white" stroke-width="0.5" stroke-miterlimit="10" stroke-linecap="round" stroke-linejoin="round"/>
<path d="M415.479 94.395C414.784 92.952 414.011 91.516 413.145 90.095C410.188 85.241 405.475 79.467 400.264 73.883C397.22 76.22 395.249 79.885 395.249 84.019C395.249 91.079 400.972 96.802 408.032 96.802C410.814 96.802 413.381 95.904 415.479 94.395Z" fill="#002984"/>
<path d="M334.24 98.66C332.116 94.545 327.832 91.726 322.882 91.726C315.822 91.726 310.099 97.449 310.099 104.51C310.099 105.405 310.193 106.278 310.368 107.12C315.11 106.576 320.025 105.393 324.924 103.267C328.229 101.834 331.332 100.278 334.24 98.66Z" fill="#002984"/>
<path d="M332.628 30.379C332.628 30.379 340.418 38.839 345.863 37.667C345.863 37.667 345.773 35.161 347.462 33.539C346.371 31.888 345.236 30.514 344.19 29.905C344.184 29.902 344.177 29.901 344.171 29.898C338.83 25.567 330.979 25.812 325.928 30.725C321.632 34.903 320.663 41.199 323.037 46.348L323.027 46.358C323.037 46.377 323.059 46.416 323.091 46.469C323.717 47.794 324.557 49.043 325.631 50.154C325.631 50.154 336.858 43.865 332.628 30.379Z" fill="#050528"/>
<path d="M377.974 164.919C426.507 195.607 441.574 259.679 411.515 308.838C381.456 357.996 317.558 373.784 268.124 344.569L377.974 164.919Z" fill="#3F51B4"/>
<path d="M368.212 251.443H316.022C316.526 251.096 317.045 250.762 317.584 250.45C315.98 250.081 314.531 249.246 313.252 248.381C311.456 247.166 309.614 245.777 308.623 244.022C307.664 242.325 307.731 240.46 308.931 238.851C310.171 237.189 312.228 235.965 314.261 234.998C316.037 234.154 317.951 233.515 319.933 233.073C317.555 231.696 316.335 228.981 316.428 226.659C316.49 225.102 317.107 223.579 318.354 222.382C319.626 221.161 321.504 220.446 323.415 220.163C325.155 219.906 326.919 219.93 328.672 220.059C328.04 218.569 328.978 216.742 330.39 215.64C332.278 214.167 334.935 213.426 337.534 213.476C340.183 213.527 342.741 214.385 344.57 215.956C345.521 216.773 346.253 217.723 346.795 218.744C349.125 220.243 350.611 222.569 350.731 224.978C353.913 224 358.053 225.662 360 227.736C362.655 230.564 360.902 233.857 358.728 236.495C362.198 236.673 365.292 238.832 366.343 241.552C367.509 244.57 366.104 247.808 363.678 250.188C365.258 250.297 366.857 250.744 368.212 251.443Z" fill="#0E0108"/>
<path d="M341.614 265.424C345.303 265.249 348.177 262.087 348.002 258.399L347.357 244.836C347.182 241.147 344.02 238.273 340.332 238.448C336.643 238.623 333.769 241.785 333.944 245.473L334.589 259.036C334.764 262.724 337.926 265.599 341.614 265.424Z" fill="#D8948F"/>
<path d="M339.761 238.475L340.903 238.421C344.277 238.261 347.17 240.891 347.33 244.265L347.558 249.074C343.478 252.892 337.631 255.276 334.402 255.13L333.916 244.903C333.757 241.528 336.387 238.635 339.761 238.475Z" fill="#C67775"/>
<path d="M322.66 231.473C322.59 229.906 322.792 228.392 323.206 226.964C323.217 226.902 323.227 226.857 323.232 226.836C323.232 226.836 323.244 226.835 323.246 226.835C324.902 221.325 329.869 217.191 335.943 216.902C343.084 216.563 349.217 221.653 350.366 228.534C350.368 228.54 350.374 228.546 350.376 228.552C351.344 231.473 349.529 238.408 348.391 242.195C347.875 243.914 346.895 245.449 345.553 246.64C341.002 250.68 329.905 257.391 325.589 251.857C321.703 246.877 322.092 237.805 322.66 231.473Z" fill="#D8948F"/>
<path d="M327.445 242.154C327.445 242.154 329.061 243.569 331.335 241.969" stroke="#0E0108" stroke-width="0.5" stroke-miterlimit="10" stroke-linecap="round" stroke-linejoin="round"/>
<path d="M341.646 234.869C341.719 234.865 341.791 234.84 341.852 234.792C342.008 234.669 342.035 234.442 341.912 234.286C339.743 231.534 335.98 233.402 335.943 233.422C335.765 233.512 335.695 233.729 335.785 233.906C335.875 234.083 336.091 234.155 336.269 234.064C336.402 233.997 339.544 232.446 341.346 234.732C341.42 234.827 341.533 234.875 341.646 234.869Z" fill="#0E0108"/>
<path d="M322.444 234.29C322.459 234.045 322.475 233.804 322.492 233.564C323.994 233.4 325.354 233.915 325.377 233.923C325.562 233.996 325.653 234.206 325.58 234.39C325.507 234.575 325.299 234.666 325.113 234.593C325.092 234.587 323.802 234.094 322.444 234.29Z" fill="#0E0108"/>
<path d="M332.703 239.939C332.809 239.934 332.912 239.883 332.979 239.79C333.111 239.606 336.285 235.326 341.617 238.164C341.793 238.257 342.011 238.191 342.104 238.015C342.197 237.839 342.13 237.621 341.955 237.528C336.06 234.391 332.428 239.32 332.393 239.37C332.277 239.532 332.314 239.757 332.476 239.873C332.545 239.922 332.625 239.943 332.703 239.939Z" fill="#0E0108"/>
<path d="M322.322 237.112C323.858 237.057 325.659 237.515 327.528 239.103C327.68 239.232 327.698 239.459 327.569 239.611C327.44 239.763 327.213 239.781 327.061 239.653C325.337 238.188 323.696 237.764 322.309 237.813C322.311 237.577 322.317 237.345 322.322 237.112Z" fill="#0E0108"/>
<path d="M355.071 238.687C354.929 235.709 352.4 233.409 349.422 233.55C346.444 233.692 344.144 236.221 344.285 239.199C344.427 242.177 346.956 244.477 349.934 244.336C352.912 244.195 355.212 241.665 355.071 238.687Z" fill="#D8948F"/>
<path d="M347.242 239.577C347.242 239.577 348.761 235.1 353.457 235.855" stroke="#0E0108" stroke-width="0.5" stroke-miterlimit="10" stroke-linecap="round" stroke-linejoin="round"/>
<path d="M328.736 247.213C328.736 247.213 333.964 248.786 336.224 243.846" stroke="#0E0108" stroke-width="0.5" stroke-miterlimit="10" stroke-linecap="round" stroke-linejoin="round"/>
<path d="M322.66 231.473C322.59 229.906 322.792 228.392 323.206 226.964C323.217 226.902 323.227 226.857 323.232 226.836C323.232 226.836 323.244 226.835 323.246 226.835C324.902 221.325 329.869 217.191 335.943 216.902C343.084 216.563 349.217 221.653 350.366 228.535C350.368 228.541 350.374 228.547 350.376 228.553C350.811 229.866 351.442 234.025 351.373 233.842C349.906 234.595 347.812 236.515 347.357 238.01C347.27 238.296 346.882 238.431 346.664 238.193C344.665 236.016 344.232 232.718 345.519 230.1C343.902 230.317 342.238 229.071 341.356 227.764C340.645 226.709 340.241 225.487 340.016 224.229C339.894 224.463 339.752 224.692 339.572 224.913C338.898 225.74 337.927 226.319 336.86 226.436C335.619 226.572 334.437 225.965 333.677 225.027C333.618 225.513 333.502 225.989 333.292 226.443C332.853 227.388 332.019 228.197 330.958 228.351C329.91 228.503 328.866 227.967 328.232 227.147C328.198 227.103 328.172 227.056 328.141 227.011C327.997 228.333 327.588 229.569 326.446 230.284C325.678 230.765 324.695 230.81 323.977 230.215C323.892 230.145 323.814 230.069 323.743 229.988C323.507 230.817 323.15 231.611 322.601 232.177C322.62 231.941 322.64 231.702 322.66 231.473Z" fill="#0E0108"/>
<path d="M354.249 243.655C354.249 241.932 352.852 240.535 351.129 240.535C349.406 240.535 348.009 241.932 348.009 243.655C348.009 245.378 349.406 246.775 351.129 246.775C352.853 246.775 354.249 245.378 354.249 243.655Z" fill="white"/>
<path d="M250.676 317.702C250.959 316.222 252.218 315.082 253.685 314.995C257.56 314.765 264.573 313.87 264.573 313.87C264.573 313.87 259.857 311.499 260.027 310.294C260.162 309.334 269.498 312.716 273.286 314.13C278.049 314.512 310.504 316.231 322.798 293.452L344.191 310.518C344.191 310.518 335.753 345.21 272.287 322.414C268.55 322.474 263.306 322.534 260.939 322.451C257.056 322.315 249.941 321.545 249.941 321.545L250.676 317.702Z" fill="#D8948F"/>
<path d="M250.784 317.335L259.73 316.967" stroke="#050528" stroke-width="0.5" stroke-miterlimit="10" stroke-linecap="round" stroke-linejoin="round"/>
<path d="M250.347 319.79L259.293 319.422" stroke="#050528" stroke-width="0.5" stroke-miterlimit="10" stroke-linecap="round" stroke-linejoin="round"/>
<path d="M315.823 299.759L334.324 256.951C334.324 256.951 342.835 258.183 347.963 252.122C377.236 257.293 392.029 303.534 397.675 326.813C379.501 345.793 355.167 356.905 329.834 358.893V329.192L315.823 299.759Z" fill="#F44336"/>
<path d="M329.835 329.192C329.835 329.192 354.435 315.843 350.482 284.851" stroke="white" stroke-width="0.5" stroke-miterlimit="10" stroke-linecap="round" stroke-linejoin="round"/>
<path d="M170.39 317.335L132.811 252.545L0 268.93V332.088L170.39 317.335Z" fill="#757DE8"/>
<path d="M109.686 136.506C109.422 138.139 109.158 139.773 108.893 141.407C108.623 143.08 109.797 144.542 107.901 146.405H44.357C44.705 145.07 45.143 143.76 45.673 142.485C46.842 139.675 48.6 136.915 51.75 136.157C53.43 135.753 55.124 135.923 56.827 136.006C58.427 136.084 59.89 135.901 60.681 134.348C61.399 132.938 61.66 131.273 62.017 129.747C62.358 128.288 62.744 126.822 63.441 125.486C66.235 120.129 72.846 120.507 77.563 117.989C77.954 117.78 78.322 117.544 78.679 117.294C79.344 116.543 79.931 115.709 80.498 114.917C81.866 113.008 83.132 111.03 84.574 109.174C86.896 106.185 89.877 103.416 93.584 102.406C94.33 102.1 95.124 101.885 95.953 101.773C98.581 101.417 101.21 102.193 103.462 103.538C105.871 104.977 107.98 107.058 109.373 109.499C110.773 111.952 111.467 114.709 111.72 117.506C112.006 120.679 111.663 123.866 111.207 127.005C110.745 130.178 110.198 133.34 109.686 136.506Z" fill="#0E0108"/>
<path d="M91.825 151.917C88.02 151.736 85.054 148.475 85.235 144.669L85.9 130.678C86.081 126.873 89.342 123.907 93.148 124.088C96.953 124.269 99.919 127.53 99.738 131.335L99.073 145.327C98.891 149.133 95.63 152.098 91.825 151.917Z" fill="#D8948F"/>
<path d="M93.736 124.116L92.558 124.06C89.077 123.895 86.093 126.608 85.928 130.089L85.692 135.05C89.901 138.989 95.933 141.448 99.264 141.297L99.765 130.747C99.931 127.266 97.218 124.282 93.736 124.116Z" fill="#C67775"/>
<path d="M111.378 116.893C111.451 115.276 111.242 113.715 110.815 112.242C110.803 112.178 110.794 112.132 110.788 112.11C110.788 112.11 110.776 112.109 110.774 112.109C109.066 106.425 103.941 102.16 97.675 101.862C90.308 101.512 83.981 106.763 82.796 113.862C82.794 113.868 82.788 113.874 82.786 113.881C81.788 116.894 83.66 124.048 84.834 127.955C85.367 129.728 86.377 131.312 87.762 132.541C92.457 136.709 103.905 143.632 108.357 137.924C112.365 132.784 111.964 123.425 111.378 116.893Z" fill="#D8948F"/>
<path d="M106.442 127.912C106.442 127.912 104.775 129.372 102.429 127.721" stroke="#0E0108" stroke-width="0.5" stroke-miterlimit="10" stroke-linecap="round" stroke-linejoin="round"/>
<path d="M91.792 120.397C91.717 120.393 91.643 120.367 91.58 120.317C91.419 120.19 91.391 119.956 91.518 119.795C93.756 116.956 97.638 118.883 97.676 118.904C97.859 118.997 97.932 119.22 97.839 119.404C97.746 119.587 97.523 119.661 97.339 119.567C97.202 119.498 93.96 117.898 92.101 120.256C92.025 120.353 91.909 120.402 91.792 120.397Z" fill="#0E0108"/>
<path d="M111.601 119.799C111.585 119.547 111.569 119.298 111.551 119.051C110.001 118.882 108.599 119.413 108.575 119.422C108.384 119.497 108.29 119.714 108.365 119.904C108.44 120.095 108.655 120.188 108.847 120.114C108.869 120.105 110.201 119.597 111.601 119.799Z" fill="#0E0108"/>
<path d="M101.017 125.627C100.908 125.622 100.802 125.569 100.732 125.473C100.596 125.283 97.321 120.868 91.821 123.795C91.64 123.891 91.415 123.823 91.318 123.641C91.222 123.46 91.291 123.235 91.472 123.138C97.554 119.902 101.3 124.986 101.337 125.038C101.456 125.205 101.419 125.437 101.252 125.556C101.181 125.609 101.098 125.631 101.017 125.627Z" fill="#0E0108"/>
<path d="M111.727 122.71C110.143 122.653 108.284 123.126 106.357 124.763C106.2 124.896 106.181 125.131 106.314 125.287C106.447 125.444 106.682 125.463 106.838 125.33C108.616 123.819 110.309 123.381 111.74 123.432C111.738 123.19 111.732 122.95 111.727 122.71Z" fill="#0E0108"/>
<path d="M77.943 124.335C78.089 121.262 80.698 118.89 83.771 119.036C86.844 119.182 89.216 121.791 89.07 124.864C88.924 127.937 86.315 130.309 83.242 130.163C80.169 130.017 77.797 127.408 77.943 124.335Z" fill="#D8948F"/>
<path d="M86.019 125.253C86.019 125.253 84.452 120.634 79.608 121.413" stroke="#0E0108" stroke-width="0.5" stroke-miterlimit="10" stroke-linecap="round" stroke-linejoin="round"/>
<path d="M105.11 133.13C105.11 133.13 99.717 134.753 97.385 129.656" stroke="#0E0108" stroke-width="0.5" stroke-miterlimit="10" stroke-linecap="round" stroke-linejoin="round"/>
<path d="M82.786 113.881C82.788 113.874 82.794 113.869 82.796 113.862C83.981 106.763 90.309 101.511 97.675 101.862C103.941 102.16 109.066 106.425 110.774 112.109C110.776 112.109 110.788 112.11 110.788 112.11C110.794 112.132 110.803 112.178 110.815 112.241C111.242 113.714 111.465 114.005 111.392 115.622C111.392 115.622 108.339 114.08 101.811 107.958C101.389 107.563 99.745 102.779 99.745 102.779L101.516 107.795C101.516 107.795 100.752 120.552 82.504 119.029L82.672 118.501C82.442 116.648 82.42 114.986 82.786 113.881Z" fill="#0E0108"/>
<path d="M84.097 129.405C84.097 126.921 82.083 124.907 79.599 124.907C77.115 124.907 75.101 126.921 75.101 129.405C75.101 131.889 77.115 133.903 79.599 133.903C82.083 133.902 84.097 131.889 84.097 129.405Z" stroke="#F44336" stroke-width="0.5" stroke-miterlimit="10" stroke-linecap="round" stroke-linejoin="round"/>
<path d="M63.032 250.746C63.032 250.746 53.715 246.626 49.454 254.211C49.454 254.211 18.506 261.187 17.991 263.575C17.476 265.963 19.115 267.04 19.115 267.04H62.376L63.032 250.746Z" fill="#D8948F"/>
<path d="M38.236 215.848L143.548 220.674C143.548 220.674 160.012 223.087 160.012 244.518C160.012 265.949 129.639 268.93 129.639 268.93L58.106 267.795L59.241 238.273C59.241 238.273 35.539 239.834 38.236 215.848Z" fill="#002984"/>
<path d="M59.242 238.273L137.943 242.389" stroke="white" stroke-width="0.5" stroke-miterlimit="10" stroke-linecap="round" stroke-linejoin="round"/>
<path d="M158.728 199.071C158.728 199.071 173.392 193.436 173.562 194.64C173.732 195.845 169.016 198.216 169.016 198.216C169.016 198.216 176.028 199.111 179.904 199.341C181.371 199.428 182.63 200.568 182.913 202.048L183.649 205.892C183.649 205.892 176.534 206.662 172.651 206.798C168.768 206.934 157.132 206.684 157.132 206.684L158.728 199.071Z" fill="#D8948F"/>
<path d="M182.804 201.681L173.859 201.313" stroke="#050528" stroke-width="0.5" stroke-miterlimit="10" stroke-linecap="round" stroke-linejoin="round"/>
<path d="M183.241 204.136L174.296 203.768" stroke="#050528" stroke-width="0.5" stroke-miterlimit="10" stroke-linecap="round" stroke-linejoin="round"/>
<path d="M38.236 215.848C38.236 215.848 46.315 143.412 85.625 136.469L85.227 133.021L100.303 140.089L99.264 141.298L112.954 177.814C114.516 184.461 119.868 189.551 126.585 190.776L160.012 196.875V210.762C160.012 210.762 113.795 217.919 103.754 213.539L104.385 218.879L38.236 215.848Z" fill="#3F51B4"/>
<path d="M103.754 213.539C103.754 213.539 79.154 200.19 83.107 169.198" stroke="white" stroke-width="0.5" stroke-miterlimit="10" stroke-linecap="round" stroke-linejoin="round"/>
<path d="M160.012 196.875L154.118 195.799L154.476 211.56L160.012 210.761V196.875Z" fill="white"/>
<path d="M183.087 81.774C175.774 80.52 168.829 85.432 167.575 92.745C166.321 100.058 171.233 107.003 178.546 108.257L174.146 133.92L199.809 138.32C201.063 131.007 208.008 126.095 215.321 127.349C222.634 128.603 227.546 135.548 226.292 142.861L251.956 147.261L265.297 69.451L187.487 56.11L183.087 81.774Z" fill="#3F51B4"/>
<path d="M380.269 138.703C379.894 139.881 379.648 140.671 379.391 141.458C377.283 147.91 375.176 154.362 373.062 160.812C372.444 162.698 372.139 162.864 370.308 162.268C363.33 159.995 356.362 157.689 349.373 155.451C347.972 155.002 347.528 154.333 348.008 152.889C350.358 145.82 352.662 138.736 354.95 131.647C355.354 130.395 356.016 129.972 357.306 130.397C364.486 132.764 371.682 135.08 378.852 137.478C379.445 137.675 379.878 138.353 380.269 138.703ZM350.628 153.158C357.382 155.362 364.008 157.524 370.737 159.72C372.955 152.925 375.106 146.335 377.301 139.61C370.534 137.403 363.943 135.254 357.194 133.053C354.987 139.813 352.835 146.401 350.628 153.158Z" fill="#757DE8"/>
<path d="M132.876 56.662C133.981 57.217 134.723 57.583 135.46 57.96C141.502 61.052 147.545 64.143 153.584 67.241C155.35 68.147 155.466 68.474 154.59 70.189C151.253 76.725 147.884 83.246 144.579 89.798C143.917 91.111 143.186 91.445 141.835 90.745C135.221 87.318 128.585 83.932 121.942 80.562C120.769 79.967 120.454 79.247 121.076 78.04C124.538 71.32 127.952 64.574 131.443 57.869C131.732 57.314 132.469 56.993 132.876 56.662ZM142.512 88.2C145.746 81.875 148.919 75.668 152.142 69.366C145.778 66.111 139.606 62.955 133.308 59.734C130.069 66.072 126.914 72.245 123.684 78.567C130.014 81.806 136.183 84.962 142.512 88.2Z" fill="#757DE8"/>
<path d="M292.29 217.397C292.044 222.08 291.807 226.764 291.55 231.446C291.452 233.237 290.731 233.644 289.246 232.688C281.359 227.615 273.482 222.525 265.617 217.419C264.227 216.517 264.281 215.631 265.752 214.872C274.083 210.577 282.42 206.291 290.766 202.026C292.339 201.222 293.024 201.704 292.944 203.509C292.74 208.14 292.51 212.768 292.29 217.397ZM268.065 216.257C275.273 220.908 282.168 225.356 289.353 229.992C289.774 221.478 290.18 213.274 290.604 204.712C282.933 208.641 275.644 212.375 268.065 216.257Z" fill="#3F51B4"/>
<path d="M59.474 79.154C63.963 80.513 68.454 81.863 72.939 83.232C74.654 83.756 74.877 84.552 73.594 85.766C66.782 92.211 59.956 98.642 53.117 105.058C51.908 106.192 51.061 105.928 50.677 104.318C48.499 95.201 46.332 86.082 44.187 76.957C43.783 75.237 44.415 74.687 46.148 75.196C50.593 76.503 55.032 77.833 59.474 79.154ZM52.573 102.403C58.813 96.516 64.781 90.885 71.001 85.017C62.835 82.572 54.966 80.216 46.754 77.757C48.734 86.145 50.616 94.116 52.573 102.403Z" fill="#3F51B4"/>
<path d="M248.208 38.87C248.723 39.767 249.657 41.458 250.654 43.111C252.272 45.795 254.639 45.845 256.371 43.208C257.309 41.78 258.056 40.225 259.013 38.811C262.5 33.659 269.022 33.826 272.242 39.131C273.015 40.405 273.67 41.75 274.441 43.025C276.221 45.966 278.622 45.996 280.469 43.093C281.387 41.65 282.142 40.101 283.103 38.69C284.507 36.628 286.427 35.33 289.01 35.205C289.957 35.159 290.831 35.47 290.7 36.49C290.634 37.006 289.789 37.756 289.233 37.816C287.274 38.03 285.969 39.048 284.993 40.636C284.04 42.187 283.208 43.823 282.144 45.292C279.587 48.821 275.45 48.849 272.857 45.339C271.814 43.927 271.052 42.307 270.153 40.788C267.764 36.751 263.552 36.662 261.014 40.613C260.06 42.098 259.287 43.706 258.259 45.134C255.591 48.842 251.143 48.721 248.672 44.906C247.683 43.379 246.843 41.756 245.88 40.211C244.957 38.729 243.678 37.761 241.846 37.674C240.894 37.629 240.086 37.145 240.395 36.157C240.553 35.651 241.498 35.073 242.085 35.075C244.452 35.085 246.284 36.26 248.208 38.87Z" fill="#002984"/>
<path d="M112.313 344.731C112.829 345.628 113.762 347.319 114.759 348.972C116.377 351.656 118.744 351.706 120.476 349.069C121.414 347.641 122.161 346.086 123.118 344.672C126.605 339.52 133.127 339.687 136.347 344.992C137.12 346.266 137.775 347.611 138.546 348.886C140.326 351.827 142.727 351.857 144.574 348.954C145.492 347.511 146.247 345.962 147.208 344.55C148.612 342.488 150.532 341.19 153.115 341.065C154.063 341.019 154.936 341.33 154.805 342.35C154.739 342.866 153.894 343.616 153.338 343.677C151.379 343.89 150.074 344.909 149.098 346.497C148.145 348.048 147.314 349.684 146.25 351.153C143.693 354.682 139.556 354.71 136.963 351.2C135.92 349.788 135.158 348.169 134.259 346.649C131.87 342.612 127.657 342.523 125.12 346.474C124.166 347.959 123.393 349.567 122.365 350.995C119.697 354.703 115.249 354.582 112.778 350.767C111.789 349.24 110.949 347.617 109.987 346.072C109.064 344.59 107.785 343.622 105.953 343.535C105.001 343.49 104.193 343.006 104.502 342.018C104.66 341.512 105.605 340.933 106.192 340.936C108.557 340.945 110.389 342.12 112.313 344.731Z" fill="#F44336"/>
<path d="M159.02 144.191C164.818 147.703 170.132 150.923 175.741 154.321C170.022 157.465 164.552 160.471 159.02 163.512C159.02 157.116 159.02 150.911 159.02 144.191Z" fill="#757DE8"/>
<path d="M281.323 167.461C282.727 167.461 283.865 166.323 283.865 164.919C283.865 163.515 282.727 162.377 281.323 162.377C279.919 162.377 278.781 163.515 278.781 164.919C278.781 166.323 279.919 167.461 281.323 167.461Z" fill="#F44336"/>
<path d="M102.568 59.349C102.568 57.945 103.706 56.807 105.11 56.807C106.514 56.807 107.652 57.945 107.652 59.349C107.652 60.753 106.514 61.891 105.11 61.891C103.706 61.891 102.568 60.753 102.568 59.349Z" fill="#F44336"/>
<path d="M157.47 274.794C157.47 273.39 158.608 272.252 160.012 272.252C161.416 272.252 162.554 273.39 162.554 274.794C162.554 276.198 161.416 277.336 160.012 277.336C158.608 277.337 157.47 276.198 157.47 274.794Z" fill="#F44336"/>
<path d="M147.057 30.102C147.057 28.698 148.195 27.56 149.599 27.56C151.003 27.56 152.141 28.698 152.141 30.102C152.141 31.506 151.003 32.644 149.599 32.644C148.195 32.644 147.057 31.506 147.057 30.102Z" fill="#F44336"/>
<path d="M276.516 286.825C277.606 286.825 278.489 285.942 278.489 284.852C278.489 283.762 277.606 282.879 276.516 282.879C275.426 282.879 274.543 283.762 274.543 284.852C274.543 285.942 275.426 286.825 276.516 286.825Z" fill="#F44336"/>
<path d="M315.823 198.341C317.227 198.341 318.365 197.203 318.365 195.799C318.365 194.395 317.227 193.257 315.823 193.257C314.419 193.257 313.281 194.395 313.281 195.799C313.281 197.203 314.419 198.341 315.823 198.341Z" fill="#F44336"/>
<path d="M15.349 235.422C15.349 234.018 16.487 232.88 17.891 232.88C19.295 232.88 20.433 234.018 20.433 235.422C20.433 236.826 19.295 237.964 17.891 237.964C16.487 237.964 15.349 236.826 15.349 235.422Z" fill="#F44336"/>
<path d="M426.993 186.601C426.993 185.197 428.131 184.059 429.535 184.059C430.939 184.059 432.077 185.197 432.077 186.601C432.077 188.005 430.939 189.143 429.535 189.143C428.132 189.143 426.993 188.005 426.993 186.601Z" fill="#F44336"/>
<path d="M26.258 166.19C26.96 166.19 27.529 165.621 27.529 164.919C27.529 164.217 26.96 163.648 26.258 163.648C25.556 163.648 24.987 164.217 24.987 164.919C24.987 165.621 25.556 166.19 26.258 166.19Z" fill="#F44336"/>
<path d="M438.517 218.692C439.219 218.692 439.788 218.123 439.788 217.421C439.788 216.719 439.219 216.15 438.517 216.15C437.815 216.15 437.246 216.719 437.246 217.421C437.246 218.123 437.815 218.692 438.517 218.692Z" fill="#F44336"/>
<path d="M265.564 186.601C266.968 186.601 268.106 185.463 268.106 184.059C268.106 182.655 266.968 181.517 265.564 181.517C264.16 181.517 263.022 182.655 263.022 184.059C263.022 185.463 264.16 186.601 265.564 186.601Z" fill="#F44336"/>
<path d="M64.303 340.909C64.303 340.207 64.872 339.638 65.574 339.638C66.276 339.638 66.845 340.207 66.845 340.909C66.845 341.611 66.276 342.18 65.574 342.18C64.872 342.18 64.303 341.611 64.303 340.909Z" fill="#F44336"/>
<path d="M135.401 167.461C135.401 166.057 136.539 164.919 137.943 164.919C139.347 164.919 140.485 166.057 140.485 167.461C140.485 168.865 139.347 170.003 137.943 170.003C136.539 170.003 135.401 168.865 135.401 167.461Z" fill="#F44336"/>
<path d="M86.019 23.491C86.7209 23.491 87.29 22.922 87.29 22.22C87.29 21.5181 86.7209 20.949 86.019 20.949C85.317 20.949 84.748 21.5181 84.748 22.22C84.748 22.922 85.317 23.491 86.019 23.491Z" fill="#F44336"/>
<path d="M211.793 44.569C213.197 44.569 214.335 43.4309 214.335 42.027C214.335 40.6231 213.197 39.485 211.793 39.485C210.389 39.485 209.251 40.6231 209.251 42.027C209.251 43.4309 210.389 44.569 211.793 44.569Z" fill="#F44336"/>
<path d="M240.331 54.849C241.033 54.849 241.602 54.28 241.602 53.578C241.602 52.8761 241.033 52.307 240.331 52.307C239.629 52.307 239.06 52.8761 239.06 53.578C239.06 54.28 239.629 54.849 240.331 54.849Z" fill="#F44336"/>
<path d="M289.156 63.385C289.156 61.289 290.855 59.59 292.951 59.59C295.047 59.59 296.746 61.289 296.746 63.385C296.746 65.481 295.047 67.18 292.951 67.18C290.855 67.18 289.156 65.481 289.156 63.385Z" fill="#F44336"/>
<path d="M310.098 157.646C312.194 157.646 313.893 155.947 313.893 153.851C313.893 151.755 312.194 150.056 310.098 150.056C308.002 150.056 306.303 151.755 306.303 153.851C306.303 155.947 308.002 157.646 310.098 157.646Z" fill="#F44336"/>
<path d="M272.721 236.928C272.721 234.832 274.42 233.133 276.516 233.133C278.612 233.133 280.311 234.832 280.311 236.928C280.311 239.024 278.612 240.723 276.516 240.723C274.42 240.722 272.721 239.023 272.721 236.928Z" fill="#F44336"/>
</svg>
