<svg width="195" height="101" viewBox="0 0 195 101" fill="none" xmlns="http://www.w3.org/2000/svg">
<path fill-rule="evenodd" clip-rule="evenodd" d="M63.2144 68.1681C60.8176 70.569 58.7598 73.32 57.0496 76.7556L56.8743 77.2659L80.8635 78.3011C83.4355 78.4701 85.6655 76.2382 85.6655 73.6612C85.8306 71.0881 83.6042 69.0253 81.0388 69.0253L63.2144 68.1681ZM81.3778 57.5195C74.5216 60.0961 68.8729 62.8453 64.0726 67.3108L85.4897 66.7917C88.0618 66.6226 90.2882 64.5616 90.2882 61.9899C90.2882 59.4097 88.234 57.3469 85.6655 57.3469L81.3778 57.5195ZM127.471 21.2898C129.874 19.0561 131.923 16.1397 133.811 12.7054L133.982 12.188L109.825 11.1568C107.256 10.986 105.193 13.2196 105.026 15.7927C105.026 18.3697 107.079 20.4325 109.649 20.6016L127.471 21.2898ZM109.483 32.1087C116.162 29.3595 121.987 26.6138 126.615 22.1452L105.369 22.6644C102.8 22.8348 100.567 24.8945 100.567 27.4729C100.398 30.0477 102.454 32.2813 105.026 32.1087H109.483ZM87.895 24.2094C-0.863022 -56.4964 -36.5018 90.8314 48.1374 86.2022H48.9992L67.1595 87.7441C69.5527 87.9162 71.6154 85.683 71.6154 83.287C71.6154 80.8741 69.7262 79.1583 67.3263 78.9857L56.7092 77.7819C56.7092 79.8465 57.7343 83.1042 54.6479 82.2505C53.1045 81.7278 52.5937 81.2193 51.9036 80.1859C50.8799 78.6423 50.8799 75.2102 52.0789 73.1474C52.5937 72.2919 53.2766 71.4298 53.791 70.9173L37.6871 79.6721C35.8028 80.7033 33.5765 80.0155 32.8833 78.3011C32.2052 76.5794 33.2308 74.6946 35.1181 73.6612L49.6772 65.5879H49.5104L47.967 66.2743L47.2822 66.6226L29.2892 75.2102C27.7511 75.8912 26.0355 75.2102 25.349 73.6612C24.6643 72.1162 25.349 70.3981 26.8924 69.5427L44.5415 61.126L45.2263 60.6121L28.9502 67.1382C27.4068 67.8215 25.5212 67.1382 24.8347 65.5879C24.3186 64.0442 25.01 62.1571 26.545 61.4725L42.821 55.1168L43.6828 54.4286L34.6038 57.5195C33.0586 58.0351 31.3519 57.5195 30.834 56.1502C30.1426 54.6012 30.834 52.885 32.3774 52.1968L43.6828 48.2509L44.1958 47.9057C50.0247 45.3326 62.1888 40.8636 55.3393 31.4205C52.0789 26.7811 52.5937 36.7415 46.4235 38.9751C42.821 40.6927 41.9677 40.517 39.0614 41.7244C-26.2235 65.7672 43.3371 -47.9124 82.4065 36.5724C155.061 193.524 259.24 15.9671 142.553 3.25922H141.861L123.699 1.71379C121.3 1.54118 119.241 3.77482 119.241 6.18106C119.079 8.57972 121.127 10.3013 123.355 10.4704L133.982 11.6724C134.148 9.60957 133.131 6.52405 136.212 7.21046C137.585 7.72293 138.098 8.23853 138.776 9.26793C139.97 10.8169 139.97 14.4198 138.776 16.3087C138.098 17.1673 137.585 18.0263 137.069 18.7127L153.166 9.78396C155.061 8.75411 157.285 9.60957 157.972 11.1568C158.65 12.8744 157.619 14.765 155.747 15.7927L141.183 23.8628L142.895 23.1782L143.573 23.0056L161.575 14.2472C162.942 13.5608 164.828 14.2472 165.506 15.7927C166.184 17.3363 165.506 19.0561 163.964 19.9152L146.315 28.3283L145.632 28.8475L161.914 22.3192C163.455 21.8036 165.172 22.3192 165.848 23.8628C166.54 25.4101 165.848 27.2985 164.315 27.9867L148.039 34.3388L147.179 35.027L156.251 31.9348C157.798 31.4205 159.345 31.9348 160.023 33.3094C160.544 34.8531 160.023 36.7415 158.488 37.2589L147.179 41.2052L146.666 41.55C140.667 44.127 128.664 48.5921 135.361 58.2059C138.602 62.6696 139.294 53.2319 142.04 52.0282C198.4 24.8945 208.338 133.586 87.895 24.2094Z" fill="#F44336"/>
</svg>
